# xmcd CD database file
#
# Track frame offsets:
#	150
#	14060
#	33383
#	54142
#	72596
#	90702
#	106204
#	122208
#	129020
#	144937
#	156039
#	162382
#	174612
#	188863
#	205884
#	213964
#	230451
#	248233
#
# Disc length: 3580 seconds
#
# Revision: 8
# Processed by: cddbd v1.5.2PL0 Copyright (c) Steve Scherf et al.
# Submitted via: CDex 1.70beta2
#
DISCID=f70dfa12
DTITLE=조성우 - 봄날은 간다 ost
DYEAR=2001
DGENRE=Soundtrack
TTITLE0=One Fine Spring Day (Main Theme)
TTITLE1=그 해 봄에 (Theme For 상우)
TTITLE2=봄날은 간다 (Title Song)
TTITLE3=사랑의 인사 (Theme For 은수) 
TTITLE4=Plaiser D'amour
TTITLE5=One fine spring day (Instrumental)
TTITLE6=사랑의 인사 (Instrumental)
TTITLE7=Title, '봄날은 간다'
TTITLE8=소리여행 I (대숲에서)
TTITLE9=소리여행 II (산사에서)
TTITLE10=사랑의 시작
TTITLE11=행복했던 날들
TTITLE12=아버지
TTITLE13=이별
TTITLE14=재회
TTITLE15=떠남 (상우의 테)
TTITLE16=집 떠나는 할머니
TTITLE17=잊혀짐... 또 다시 봄 (One Fine Spring Day) 
EXTD=YEAR: 2001
EXTT0=
EXTT1=
EXTT2=
EXTT3=
EXTT4=
EXTT5=
EXTT6=
EXTT7=
EXTT8=
EXTT9=
EXTT10=
EXTT11=
EXTT12=
EXTT13=
EXTT14=
EXTT15=
EXTT16=
EXTT17=
PLAYORDER=
